<svg id="Layer_1" data-name="Layer 1" xmlns="http://www.w3.org/2000/svg" viewBox="0 0 50 50"><defs><style>.cls-1{fill:#231f20;}.cls-1,.cls-2{stroke:#d2dae4;stroke-miterlimit:10;stroke-width:2px;}.cls-2{fill:#f7ec13;}</style></defs><path class="cls-1" d="M39.73,8.06H10.27L15,46.45v.06c0,1,4.5,1.87,10.05,1.87s9.9-.63,10-1.65l.09-.19Z"/><path class="cls-2" d="M39.07,17,36.72,36.32c0,1.24-23.43,1.24-23.43,0L10.93,17a.36.36,0,0,1,.35-.4H38.72A.36.36,0,0,1,39.07,17Z"/><path class="cls-1" d="M39,2.38c0-1.06-28-1.06-28,0l-.73,4.11H39.74Z"/><path class="cls-1" d="M40.41,6.49H9.59c-.55,0-1.05.76-1.27,1.93v.06c-.17.87.11,1.85.52,1.85H41.17c.4,0,.68-.94.53-1.81h0C41.49,7.3,41,6.49,40.41,6.49Z"/></svg>